<?xml version="1.0" encoding="utf-8"?>
<!-- Generator: Adobe Illustrator 25.2.3, SVG Export Plug-In . SVG Version: 6.00 Build 0)  -->
<svg version="1.1" xmlns="http://www.w3.org/2000/svg" xmlns:xlink="http://www.w3.org/1999/xlink" x="0px" y="0px"
	 viewBox="0 0 512 512" style="enable-background:new 0 0 512 512;" xml:space="preserve">
<style type="text/css">
	.st0{fill:#F8E400;}
	.st1{fill:#383838;}
</style>
<g id="Layer_1">
</g>
<g id="Layer_2">
	<g id="XMLID_1_">
		<g>
			<path class="st0" d="M473.32,512H0V409.7h433.03c-13.75,14.87-23.8,28.15-23.99,35.35C411.14,468.14,473.32,512,473.32,512z"/>
			<path class="st1" d="M433.03,409.7c30.43-32.89,78.97-73.58,78.97-73.58V512h-38.68c0,0-62.18-43.86-64.28-66.95
				C409.23,437.85,419.28,424.57,433.03,409.7z"/>
		</g>
		<g>
		</g>
	</g>
	<g>
		<path d="M81.21,231.94l-20.02-105.3h18.59l12.48,72.8l11.7-72.8h19.37l-20.02,105.3H81.21z"/>
		<path d="M149.46,233.24c-5.37,0-9.97-0.97-13.78-2.92c-3.81-1.95-6.69-4.79-8.65-8.52c-1.95-3.72-2.92-8.36-2.92-13.91v-27.04
			c0-5.55,0.97-10.18,2.92-13.91c1.95-3.73,4.83-6.57,8.65-8.52c3.81-1.95,8.41-2.92,13.78-2.92c5.37,0,9.97,0.98,13.78,2.92
			c3.81,1.95,6.72,4.79,8.71,8.52c1.99,3.73,2.99,8.36,2.99,13.91v27.04c0,5.55-1,10.18-2.99,13.91c-1.99,3.73-4.9,6.57-8.71,8.52
			C159.42,232.27,154.83,233.24,149.46,233.24z M149.59,219.98c1.65,0,2.9-0.46,3.77-1.37c0.87-0.91,1.43-2.17,1.69-3.77
			c0.26-1.6,0.39-3.44,0.39-5.52v-29.77c0-2.17-0.13-4.03-0.39-5.59c-0.26-1.56-0.82-2.82-1.69-3.77c-0.87-0.95-2.12-1.43-3.77-1.43
			c-1.65,0-2.9,0.48-3.77,1.43c-0.87,0.95-1.45,2.21-1.76,3.77c-0.3,1.56-0.45,3.42-0.45,5.59v29.77c0,2.08,0.15,3.92,0.45,5.52
			c0.3,1.61,0.89,2.86,1.76,3.77C146.68,219.53,147.94,219.98,149.59,219.98z"/>
		<path d="M181.31,231.94v-105.3h19.63v105.3H181.31z"/>
		<path d="M230.71,232.72c-5.2,0-9.27-0.8-12.22-2.4c-2.95-1.6-4.98-3.92-6.11-6.96c-1.13-3.03-1.69-6.72-1.69-11.05v-42.64h-7.41
			V156.8h7.41v-22.75h19.89v22.75h10.92v12.87h-10.92v40.82c0,2.34,0.58,4.01,1.75,5c1.17,1,2.79,1.5,4.88,1.5
			c1.04,0,2.04-0.07,2.99-0.2c0.95-0.13,1.82-0.24,2.6-0.33v15.34c-1.21,0.17-2.95,0.37-5.2,0.58
			C235.34,232.61,233.05,232.72,230.71,232.72z"/>
	</g>
	<g>
		<path d="M80.75,384.32v-145.8h37.8c9.84,0,18.27,1.11,25.29,3.33c7.02,2.22,12.42,6.15,16.2,11.79c3.78,5.64,5.67,13.44,5.67,23.4
			c0,6-0.51,11.31-1.53,15.93c-1.02,4.62-2.82,8.64-5.4,12.06c-2.58,3.42-6.21,6.15-10.89,8.19l20.16,71.1h-30.42l-16.74-66.06
			h-10.44v66.06H80.75z M110.45,300.62h8.64c4.8,0,8.58-0.78,11.34-2.34c2.76-1.56,4.71-3.93,5.85-7.11
			c1.14-3.18,1.71-7.11,1.71-11.79c0-6.72-1.23-11.85-3.69-15.39c-2.46-3.54-7.05-5.31-13.77-5.31h-10.08V300.62z"/>
		<path d="M180.65,384.32v-145.8h46.26c8.76,0,15.9,1.65,21.42,4.95c5.52,3.3,9.63,8.07,12.33,14.31c2.7,6.24,4.05,13.8,4.05,22.68
			c0,10.44-1.77,18.6-5.31,24.48c-3.54,5.88-8.37,10.05-14.49,12.51c-6.12,2.46-13.14,3.69-21.06,3.69h-13.5v63.18H180.65z
			 M210.35,300.26h10.44c4.32,0,7.65-0.69,9.99-2.07c2.34-1.38,3.93-3.57,4.77-6.57c0.84-3,1.26-6.84,1.26-11.52
			c0-4.44-0.33-8.16-0.99-11.16c-0.66-3-2.13-5.34-4.41-7.02c-2.28-1.68-5.88-2.52-10.8-2.52h-10.26V300.26z"/>
		<path d="M316,386.3c-10.8,0-19.35-2.04-25.65-6.12c-6.3-4.08-10.71-9.75-13.23-17.01c-2.52-7.26-3.78-15.69-3.78-25.29V285.5
			c0-10.08,1.26-18.75,3.78-26.01c2.52-7.26,6.93-12.87,13.23-16.83s14.85-5.94,25.65-5.94c10.44,0,18.63,1.74,24.57,5.22
			c5.94,3.48,10.14,8.4,12.6,14.76c2.46,6.36,3.69,13.74,3.69,22.14v12.24h-28.8V277.4c0-3.36-0.18-6.51-0.54-9.45
			c-0.36-2.94-1.35-5.34-2.97-7.2c-1.62-1.86-4.41-2.79-8.37-2.79s-6.84,0.96-8.64,2.88c-1.8,1.92-2.94,4.41-3.42,7.47
			c-0.48,3.06-0.72,6.45-0.72,10.17v66.24c0,4.08,0.33,7.65,0.99,10.71c0.66,3.06,1.92,5.4,3.78,7.02c1.86,1.62,4.53,2.43,8.01,2.43
			c3.84,0,6.57-0.93,8.19-2.79c1.62-1.86,2.64-4.35,3.06-7.47c0.42-3.12,0.63-6.42,0.63-9.9V330.5h28.8v12.06
			c0,8.52-1.2,16.05-3.6,22.59c-2.4,6.54-6.54,11.7-12.42,15.48C334.96,384.41,326.68,386.3,316,386.3z"/>
	</g>
</g>
</svg>
